<svg width="346" height="216" viewBox="0 0 346 216" fill="none" xmlns="http://www.w3.org/2000/svg">
<rect x="7.5" y="7.5" width="331" height="201" rx="37.5" stroke="black" stroke-width="15"/>
<path d="M61.5312 161H41.3516V60.1719H111.945V80.3516H61.5312V100.531H91.7656V120.711H61.5312V161ZM221.562 161H201.453V89C201.453 87.5938 201.172 86.2812 200.609 85.0625C200.094 83.8438 199.367 82.7891 198.43 81.8984C197.539 80.9609 196.484 80.2344 195.266 79.7188C194.047 79.2031 192.734 78.9453 191.328 78.9453C189.922 78.9453 188.609 79.2031 187.391 79.7188C186.172 80.2344 185.094 80.9609 184.156 81.8984C183.266 82.7891 182.562 83.8438 182.047 85.0625C181.531 86.2812 181.273 87.5938 181.273 89V161H161.094V89C161.094 87.5938 160.836 86.2812 160.32 85.0625C159.805 83.8438 159.078 82.7891 158.141 81.8984C157.25 80.9609 156.195 80.2344 154.977 79.7188C153.758 79.2031 152.445 78.9453 151.039 78.9453C149.633 78.9453 148.32 79.2031 147.102 79.7188C145.883 80.2344 144.805 80.9609 143.867 81.8984C142.977 82.7891 142.273 83.8438 141.758 85.0625C141.242 86.2812 140.984 87.5938 140.984 89V161H120.805V89C120.805 84.8281 121.578 80.9141 123.125 77.2578C124.719 73.5547 126.875 70.3438 129.594 67.625C132.359 64.8594 135.57 62.7031 139.227 61.1562C142.93 59.5625 146.867 58.7656 151.039 58.7656C154.789 58.7656 158.398 59.4453 161.867 60.8047C165.336 62.1172 168.453 64.0391 171.219 66.5703C173.984 64.0391 177.078 62.1172 180.5 60.8047C183.969 59.4453 187.578 58.7656 191.328 58.7656C195.5 58.7656 199.414 59.5625 203.07 61.1562C206.773 62.7031 209.984 64.8594 212.703 67.625C215.469 70.3438 217.625 73.5547 219.172 77.2578C220.766 80.9141 221.562 84.8281 221.562 89V161ZM280.836 161H260.727V80.3516H230.422V60.1719H311.07V80.3516H280.836V161Z" fill="black"/>
</svg>
